# xmcd
#
# Track frame offsets:
#	150
#	15147
#	30865
#	49892
#	65922
#	83387
#	103150
#	119600
#	131762
#	145825
#	159540
#	173505
#	190842
#	206422
#	224457
#
# Disc length: 3204 seconds
#
# Revision: 1
# Processed by: cddbd v1.5.2PL0 Copyright (c) Steve Scherf et al.
# Submitted via: audiograbber 1.83.01
#
DISCID=c90c820f
DTITLE=Music Maestro - MM6286
DYEAR=1900
DGENRE=Karaoke
TTITLE0=Alan Jackson - Pop A Top
TTITLE1=LeAnn Rimes - Big Deal
TTITLE2=Brad Paisley - He Didn't Have To Be
TTITLE3=Reba McEntire - What Do You Say
TTITLE4=Pam Tillis - After A Kiss
TTITLE5=John Berry - Power Windows
TTITLE6=Lonestar - Smile
TTITLE7=Yankee Grey - All Things Considered
TTITLE8=Toby Keith - When Love Fades
TTITLE9=Michael Peterson - Sure Feels Real Good
TTITLE10=Merle Haggard and Jewel - That's The Way Love Goes
TTITLE11=Kenny Chesney - She Thinks My Tractor's Sexy
TTITLE12=Jerry Kilgore - Love Trip
TTITLE13=Chely Wright - It Was
TTITLE14=Joe Diffie - The Quittin' Kind
EXTD=
EXTT0=
EXTT1=
EXTT2=
EXTT3=
EXTT4=
EXTT5=
EXTT6=
EXTT7=
EXTT8=
EXTT9=
EXTT10=
EXTT11=
EXTT12=
EXTT13=
EXTT14=
PLAYORDER=
